<svg xmlns="http://www.w3.org/2000/svg" width="192" height="192" viewBox="0 0 192 192" fill="none">
  <rect width="192" height="192" rx="20" fill="#6b21a8"/>
  <path d="M42 96C42 66.1766 66.1766 42 96 42C125.823 42 150 66.1766 150 96C150 125.823 125.823 150 96 150C66.1766 150 42 125.823 42 96Z" fill="white"/>
  <path d="M82 83C82 81.3431 83.3431 80 85 80H107C108.657 80 110 81.3431 110 83V102C110 103.657 108.657 105 107 105H85C83.3431 105 82 103.657 82 102V83Z" fill="#6b21a8"/>
  <path d="M72 96C72 94.3431 73.3431 93 75 93H97C98.6569 93 100 94.3431 100 96V115C100 116.657 98.6569 118 97 118H75C73.3431 118 72 116.657 72 115V96Z" fill="#6b21a8"/>
  <path d="M92 108C92 106.343 93.3431 105 95 105H117C118.657 105 120 106.343 120 108V127C120 128.657 118.657 130 117 130H95C93.3431 130 92 128.657 92 127V108Z" fill="#6b21a8"/>
</svg> 